<svg xmlns="http://www.w3.org/2000/svg" xml:space="preserve" id="ae" width="512" height="512" x="0" y="0" enable-background="new 0 0 512 512" version="1.1" viewBox="0 0 512 512">
  <g>
    <path fill="#C09FCB" d="M378.791,42.453H132.208L8.917,256l123.291,213.548h246.583L502.083,256L378.791,42.453z M361.471,439.548   H149.529L43.558,256L149.529,72.453h211.942L467.442,256L361.471,439.548z"></path>
    <polygon fill="#200E28" points="361.699 72.058 149.301 72.058 43.102 256 149.301 439.942 361.699 439.942 467.898 256"></polygon>
  </g>
  <g>
    <path fill="#C0A0CB" d="M222.281 306.169h-66.304l-12.605 37.816h-40.211l68.321-183.534h35.043l68.699 183.534h-40.211L222.281 306.169zM166.188 275.538h45.883l-23.068-68.699L166.188 275.538zM352.746 346.507c-20.001 0-36.284-6.134-48.846-18.404-12.564-12.269-18.845-28.614-18.845-49.034v-3.53c0-13.696 2.646-25.945 7.941-36.744 5.294-10.797 12.794-19.117 22.5-24.958 9.706-5.84 20.777-8.761 33.215-8.761 18.656 0 33.342 5.883 44.056 17.647 10.715 11.766 16.072 28.447 16.072 50.043v14.874h-86.851c1.176 8.908 4.727 16.052 10.651 21.429 5.925 5.379 13.425 8.067 22.5 8.067 14.033 0 25-5.083 32.9-15.252l17.899 20.042c-5.464 7.732-12.857 13.762-22.186 18.089S364.091 346.507 352.746 346.507zM348.586 234.445c-7.229 0-13.09 2.448-17.584 7.345-4.497 4.896-7.374 11.902-8.635 21.017h50.674v-2.913c-.17-8.103-2.354-14.37-6.556-18.801C362.282 236.661 356.316 234.445 348.586 234.445z"></path>
  </g>
</svg>
