<svg xmlns="http://www.w3.org/2000/svg" viewBox="0 0 32 32" id="bilibili">
  <path d="M28 8h-9.586l3.293-3.293a.999.999 0 1 0-1.414-1.414l-4.545 4.544-7.397-2.774a1.003 1.003 0 0 0-1.288.586 1.002 1.002 0 0 0 .586 1.288L10.485 8H4a1 1 0 0 0-1 1v17a1 1 0 0 0 1 1h2.184c.414 1.161 1.514 2 2.816 2s2.402-.839 2.816-2h8.369c.414 1.161 1.514 2 2.816 2s2.402-.839 2.816-2H28a1 1 0 0 0 1-1V9a1 1 0 0 0-1-1zm-1 17H5V10h22v15zM7 24h18a1 1 0 0 0 1-1V12a1 1 0 0 0-1-1H7a1 1 0 0 0-1 1v11a1 1 0 0 0 1 1zm1-11h16v9H8v-9zm4.001 4a1 1 0 0 1-.449-1.895l2-1a1 1 0 1 1 .895 1.789l-2 1a.99.99 0 0 1-.446.106zm9.948-.684a1.001 1.001 0 0 1-1.265.632l-3-1a1 1 0 1 1 .633-1.897l3 1a1 1 0 0 1 .632 1.265zM20 18.5c0 1.378-1.122 2.5-2.5 2.5a2.471 2.471 0 0 1-1.5-.513 2.471 2.471 0 0 1-1.5.513 2.503 2.503 0 0 1-2.5-2.5 1 1 0 0 1 2 0 .5.5 0 0 0 1 0 1 1 0 0 1 2 0 .5.5 0 0 0 1 0 1 1 0 0 1 2 0z"></path>
</svg>
