<svg xmlns="http://www.w3.org/2000/svg" xml:space="preserve" id="pr" width="512" height="512" x="0" y="0" enable-background="new 0 0 512 512" version="1.1" viewBox="0 0 512 512">
  <g>
    <path fill="#BD85BB" d="M378.791,42.453H132.208L8.917,256l123.291,213.548h246.583L502.083,256L378.791,42.453z M361.471,439.548   H149.529L43.558,256L149.529,72.453h211.942L467.442,256L361.471,439.548z"></path>
    <polygon fill="#1B0F28" points="361.699 72.058 149.301 72.058 43.102 256 149.301 439.942 361.699 439.942 467.898 256"></polygon>
    <g>
      <path fill="#BD85BB" d="M172.599 282.686v64.666h-37.816V163.817h71.599c13.781 0 25.904 2.521 36.366 7.563 10.462 5.042 18.509 12.208 24.14 21.492 5.629 9.287 8.445 19.854 8.445 31.703 0 17.984-6.157 32.166-18.467 42.542-12.312 10.381-29.351 15.568-51.115 15.568H172.599zM172.599 252.055h33.782c10 0 17.625-2.353 22.878-7.06 5.251-4.705 7.878-11.427 7.878-20.168 0-8.991-2.647-16.261-7.941-21.807-5.294-5.546-12.605-8.402-21.933-8.572h-34.665V252.055zM375.545 245.122c-4.96-.671-9.328-1.008-13.11-1.008-13.783 0-22.815 4.665-27.102 13.992v89.246h-36.429v-136.39h34.412l1.009 16.261c7.311-12.521 17.437-18.782 30.379-18.782 4.033 0 7.815.547 11.345 1.639L375.545 245.122z"></path>
    </g>
  </g>
</svg>
